<?xml version="1.0" standalone="no"?><!DOCTYPE svg PUBLIC "-//W3C//DTD SVG 1.1//EN" "http://www.w3.org/Graphics/SVG/1.1/DTD/svg11.dtd"><svg width="200" height="200" viewBox="0 0 200 200" version="1.1" xmlns="http://www.w3.org/2000/svg" xmlns:xlink="http://www.w3.org/1999/xlink"><defs><style type="text/css"><![CDATA[
@font-face { font-family: ifont; src: url("http://at.alicdn.com/t/font_1442373896_4754455.eot?#iefix") format("embedded-opentype"), url("http://at.alicdn.com/t/font_1442373896_4754455.woff") format("woff"), url("http://at.alicdn.com/t/font_1442373896_4754455.ttf") format("truetype"), url("http://at.alicdn.com/t/font_1442373896_4754455.svg#ifont") format("svg"); }

]]></style></defs><g class="transform-group"><g transform="scale(0.1953125, 0.1953125)"><path d="M512 0C230.4 0 0 230.4 0 512s230.4 512 512 512 512-230.4 512-512S793.6 0 512 0zM512 960C265.6 960 64 758.4 64 512S265.6 64 512 64s448 201.6 448 448S758.4 960 512 960zM912 592l-137.6-86.4L403.2 265.6l-67.2-44.8 3.2 80 19.2 441.6 6.4 153.6 70.4-137.6 102.4-195.2 211.2 12.8L912 592zM544 502.4l-41.6-3.2-19.2 38.4-64 121.6-16-313.6 262.4 166.4L544 502.4z" fill="#272636"></path></g></g></svg>