<?xml version="1.0" encoding="utf-8"?><!DOCTYPE svg PUBLIC "-//W3C//DTD SVG 1.1//EN" "http://www.w3.org/Graphics/SVG/1.1/DTD/svg11.dtd"><svg version="1.1" xmlns="http://www.w3.org/2000/svg" xmlns:xlink="http://www.w3.org/1999/xlink" width="24" height="24" viewBox="0 0 24 24" data-tags="social-github"><g fill="#444" transform="scale(0.0234375 0.0234375)"><path d="M615.893 553.515c11.477 0 20.992 5.675 29.269 16.896 8.192 11.307 12.544 25.088 12.544 41.6 0 16.427-4.352 30.336-12.544 41.515-8.235 11.307-17.792 16.896-29.269 16.896-11.861 0-22.272-5.589-30.507-16.896-8.192-11.179-12.544-25.088-12.544-41.515 0-16.512 4.352-30.293 12.544-41.6 8.192-11.264 18.603-16.896 30.507-16.896M762.667 401.664c31.829 34.603 48 76.587 48 125.995 0 31.915-3.669 60.715-11.051 86.315-7.467 25.472-16.811 46.251-27.904 62.251-11.264 16.043-25.088 30.080-41.557 42.197-16.469 12.203-31.616 20.992-45.44 26.581-13.867 5.632-29.653 9.941-47.403 13.056-17.792 3.029-30.976 4.736-40.235 5.248-9.088 0.384-18.688 0.597-29.227 0.597-2.347 0-10.368 0.171-23.339 0.64-12.843 0.555-23.893 0.683-32.512 0.683s-19.669-0.128-32.512-0.683c-12.971-0.469-20.992-0.64-23.339-0.64-10.496 0-20.139-0.213-29.227-0.597-9.301-0.512-22.443-2.219-40.235-5.248-18.048-3.072-33.536-7.424-47.403-13.056-13.824-5.589-29.013-14.379-45.397-26.581-16.512-12.117-30.336-26.155-41.6-42.197-11.136-16-20.437-36.779-27.904-62.251-7.381-25.6-11.051-54.4-11.051-86.315 0-49.408 16.171-91.435 48-125.995-3.499-1.749-3.627-19.072-0.341-51.925 2.688-32.896 9.685-63.232 21.12-90.965 39.851 4.224 89.173 26.837 148.096 67.456 19.883-5.077 46.976-7.808 81.792-7.808 36.352 0 63.616 2.731 81.835 7.851 26.837-18.133 52.48-32.896 77.013-44.117 24.917-11.136 42.88-17.749 54.144-19.499l16.896-3.84c11.52 27.691 18.517 58.027 21.163 90.965 3.243 32.811 3.115 50.133-0.384 51.883M513.28 735.317c72.021 0 126.037-8.619 163.029-25.899 36.48-17.237 55.125-52.821 55.125-106.496 0-31.147-11.648-57.173-35.072-77.995-11.861-11.221-26.155-18.133-42.197-20.736-16-2.603-40.491-2.603-73.387 0-32.811 2.645-55.381 3.84-67.499 3.84-16.427 0-34.133-0.768-56.277-2.517-22.187-1.707-39.595-2.773-52.181-3.328-12.544-0.384-25.984 1.152-40.875 4.608-14.72 3.499-26.837 9.557-36.395 18.133-22.229 20.011-33.707 45.952-33.707 77.995 0 53.675 18.176 89.259 54.613 106.496 36.267 17.28 90.155 25.899 162.219 25.899h2.603M409.429 553.515c11.435 0 20.992 5.675 29.227 16.896 8.192 11.307 12.544 25.088 12.544 41.6 0 16.427-4.352 30.336-12.544 41.515-8.192 11.307-17.792 16.896-29.227 16.896-11.904 0-22.272-5.589-30.549-16.896-8.192-11.179-12.544-25.088-12.544-41.515 0-16.512 4.352-30.293 12.544-41.6 8.235-11.264 18.603-16.896 30.549-16.896" /></g></svg>