<?xml version="1.0" encoding="UTF-8" standalone="no"?>
<svg width="232px" height="59px" viewBox="0 0 232 59" version="1.1" xmlns="http://www.w3.org/2000/svg" xmlns:xlink="http://www.w3.org/1999/xlink" xmlns:sketch="http://www.bohemiancoding.com/sketch/ns">
    <!-- Generator: Sketch 3.5.1 (25234) - http://www.bohemiancoding.com/sketch -->
    <title>Group 3</title>
    <desc>Created with Sketch.</desc>
    <defs></defs>
    <g id="Page-1" stroke="none" stroke-width="1" fill="none" fill-rule="evenodd" sketch:type="MSPage">
        <g id="1024" sketch:type="MSArtboardGroup" transform="translate(-166.000000, -199.000000)">
            <g id="Group-3" sketch:type="MSLayerGroup" transform="translate(166.000000, 199.000000)">
                <g id="Group-2" sketch:type="MSShapeGroup">
                    <path d="M57.3053857,25.6582544 C57.4813476,26.9500177 57.5722543,28.2689675 57.5722543,29.6092299 C57.5722543,45.5674438 44.6842662,58.5041322 28.7861272,58.5041322 C12.8879881,58.5041322 0,45.5674438 0,29.6092299 C0,13.6510159 12.8879881,0.714327507 28.7861272,0.714327507 C30.1213441,0.714327507 31.4353287,0.80557779 32.7222292,0.982204593 C30.5446859,3.65677302 29.1383487,6.98870648 28.8438591,10.6360764 C28.8390664,10.6360729 28.8342733,10.6360711 28.8294798,10.6360711 C18.3663973,10.6360711 9.88439306,19.1501266 9.88439306,29.6527463 C9.88439306,40.155366 18.3663973,48.6694215 28.8294798,48.6694215 C39.2925622,48.6694215 47.7745665,40.155366 47.7745665,29.6527463 C47.7745665,29.6164854 47.7744654,29.5802482 47.7742634,29.544035 C51.3741135,29.233234 54.6620207,27.8266883 57.3053857,25.6582544 Z" id="Oval-1" fill="#393939"></path>
                    <g id="Group" transform="translate(32.729663, 25.669796) rotate(227.000000) translate(-32.729663, -25.669796) translate(21.229663, 10.669796)">
                        <rect id="Rectangle-1" fill="#686868" x="6.36735698" y="14.2415005" width="9.19550896" height="15.4133521"></rect>
                        <polygon id="Triangle-1" fill="#383838" points="11.7020852 0.508702483 22.5741059 15.9220545 0.830064385 15.9220545 "></polygon>
                    </g>
                </g>
                <path d="M97.1242252,12.2877066 C97.4496401,11.4741695 97.9784313,11.1080833 98.7106147,11.189437 C99.3614444,11.4334981 99.5648256,11.9622893 99.3207645,12.7758264 L98.5885847,14.8503357 L106.276472,14.8503357 C107.008656,14.8503357 107.456094,15.216422 107.618802,15.9486054 C107.537448,16.6807888 107.130685,17.0875512 106.398502,17.168905 L80.040031,17.168905 C79.3078476,17.0875512 78.9417614,16.6807888 78.9417614,15.9486054 C79.0231151,15.216422 79.4298775,14.8503357 80.162061,14.8503357 L87.2397986,14.8503357 L86.3855888,13.2639463 C86.060174,12.6131166 86.222879,12.0843254 86.8737087,11.6775568 C87.5245384,11.4334957 88.0533296,11.5962007 88.4600981,12.1656767 L90.0464876,14.8503357 L96.0259556,14.8503357 L97.1242252,12.2877066 Z M90.2905475,19.3654442 C92.4870978,19.3654442 93.5446802,20.2196454 93.4633264,21.9280733 L93.4633264,37.1818182 C93.7073876,40.1919055 91.470194,40.924078 86.7516787,39.3783574 C85.9381416,39.0529426 85.6127316,38.4834751 85.775439,37.669938 C86.0195002,37.0191083 86.5482914,36.8157271 87.3618285,37.0597882 C90.046501,38.0360328 91.3481409,37.9546803 91.2667872,36.8157283 L91.2667872,32.5446798 L82.6026601,32.5446798 L82.6026601,39.2563275 C82.6026601,40.0698646 82.2365739,40.5173033 81.5043905,40.598657 C80.6908534,40.5173033 80.2840909,40.0698646 80.2840909,39.2563275 L80.2840909,21.9280733 C80.3654446,20.3009991 81.3009983,19.4467979 83.09078,19.3654442 L90.2905475,19.3654442 Z M105.666322,20.5857438 L105.666322,37.669938 C105.82903,40.8427328 103.388455,41.371524 98.3445248,39.2563275 C97.6936951,38.9309126 97.4903139,38.4021214 97.734375,37.669938 C98.0597899,37.100462 98.5479048,36.8970808 99.1987345,37.0597882 C102.371529,38.3614476 103.754522,38.2394189 103.347753,36.6936983 L103.347753,20.4637138 C103.429107,19.7315304 103.835869,19.3654442 104.568053,19.3654442 C105.300236,19.4467979 105.666322,19.8535604 105.666322,20.5857438 L105.666322,20.5857438 Z M99.3207645,22.2941632 L99.3207645,33.5209194 C99.3207645,34.3344565 98.914002,34.7818953 98.1004649,34.863249 C97.3682815,34.863249 96.961519,34.4564865 96.8801653,33.6429494 L96.8801653,22.2941632 C96.8801653,21.4806261 97.2869278,21.0331874 98.1004649,20.9518337 C98.914002,21.0331874 99.3207645,21.4806261 99.3207645,22.2941632 L99.3207645,22.2941632 Z M91.2667872,22.6602531 C91.2667872,21.9280697 90.8600247,21.5619835 90.0464876,21.5619835 L83.5788998,21.5619835 C82.9280701,21.5619835 82.6026601,21.9280697 82.6026601,22.6602531 L82.6026601,24.9788223 L91.2667872,24.9788223 L91.2667872,22.6602531 Z M82.6026601,30.4701705 L91.2667872,30.4701705 L91.2667872,27.1753616 L82.6026601,27.1753616 L82.6026601,30.4701705 Z M118.967588,16.0706353 C119.618418,16.0706353 119.943827,16.4773978 119.943827,17.2909349 C119.943827,18.104472 119.618418,18.5112345 118.967588,18.5112345 L110.791581,18.5112345 C110.059397,18.5112345 109.652635,18.104472 109.571281,17.2909349 C109.571281,16.5587515 109.937367,16.151989 110.669551,16.0706353 L113.7203,16.0706353 C113.557592,15.7452205 113.394887,15.3791343 113.23218,14.9723657 C113.069472,14.4842434 112.906767,14.0368047 112.74406,13.6300362 C112.418645,12.8978527 112.58135,12.3283853 113.23218,11.9216167 C113.964363,11.6775556 114.533831,11.9216131 114.940599,12.6537965 C115.266014,13.3859799 115.713453,14.5249148 116.282929,16.0706353 L118.967588,16.0706353 Z M130.072314,13.0198864 L130.072314,17.046875 L134.465393,17.046875 C134.953515,17.046875 135.156896,16.8434938 135.075542,16.4367252 L135.075542,13.6300362 C135.075542,12.8978527 135.441629,12.450414 136.173812,12.2877066 C136.905995,12.3690603 137.312758,12.7758228 137.394112,13.5080062 L137.394112,17.168905 C137.475465,18.6332718 136.824645,19.324768 135.441632,19.2434143 L122.506457,19.2434143 C121.123443,19.2434143 120.431947,18.5519181 120.431947,17.168905 L120.431947,13.1419163 C120.431947,12.4910866 120.83871,12.1656767 121.652247,12.1656767 C122.38443,12.1656767 122.750517,12.4910866 122.750517,13.1419163 L122.750517,16.0706353 C122.750517,16.721465 122.994574,17.046875 123.482696,17.046875 L127.753745,17.046875 L127.753745,13.0198864 C127.753745,12.2063492 128.160507,11.7589105 128.974044,11.6775568 C129.706228,11.7589105 130.072314,12.2063492 130.072314,13.0198864 L130.072314,13.0198864 Z M112.74406,21.3179236 C113.313536,24.0025961 113.720298,27.9075157 113.96436,33.0327996 C113.96436,33.8463367 113.557597,34.2937754 112.74406,34.3751291 C112.011877,34.3751291 111.605114,33.9683667 111.52376,33.1548295 C111.442407,29.1684976 111.035644,25.3449305 110.303461,21.6840134 C110.140753,20.7891226 110.466163,20.2196551 111.2797,19.975594 C112.011884,19.975594 112.499999,20.4230327 112.74406,21.3179236 L112.74406,21.3179236 Z M118.967588,21.4399535 C118.886234,23.55515 118.438795,27.2160122 117.625258,32.4226498 C117.462551,33.3988943 117.340522,34.171743 117.259168,34.741219 C117.909998,34.4971579 118.276084,34.3344529 118.357438,34.2530992 C119.089621,34.009038 119.577736,34.2530955 119.821798,34.9852789 C119.984505,35.6361086 119.699771,36.1242236 118.967588,36.4496384 C116.282915,37.425883 113.557607,38.2394079 110.791581,38.8902376 C110.059397,39.052945 109.571282,38.7682113 109.327221,38.0360279 C109.245867,37.3851982 109.571277,36.9377595 110.303461,36.6936983 C111.035644,36.5309909 112.459313,36.1242285 114.574509,35.4733988 C115.632108,30.2667612 116.282927,25.5483166 116.526989,21.3179236 C116.608342,20.5043864 117.055781,20.097624 117.869318,20.097624 C118.601502,20.1789777 118.967588,20.6264164 118.967588,21.4399535 L118.967588,21.4399535 Z M121.286157,21.1958936 L137.150052,21.1958936 C137.882235,21.2772473 138.248321,21.6433335 138.248321,22.2941632 C138.166968,23.0263466 137.760205,23.3924329 137.028022,23.3924329 L130.072314,23.3924329 L129.096074,26.0770919 L134.709452,26.0770919 C136.743295,25.9957382 137.719525,26.8906156 137.638171,28.761751 L137.638171,38.5241477 C137.800879,40.151222 136.539915,40.7206894 133.855243,40.2325671 C133.204413,40.1512134 132.879003,39.744451 132.879003,39.0122676 C133.041711,38.2800841 133.448473,37.9139979 134.099303,37.9139979 C135.075547,38.1580591 135.522986,37.9953541 135.441632,37.4258781 L135.441632,29.1278409 C135.441632,28.4770112 135.156899,28.1516012 134.587423,28.1516012 L132.634943,28.1516012 L132.634943,38.6461777 C132.634943,39.4597148 132.268857,39.9071535 131.536674,39.9885072 C130.80449,39.9071535 130.438404,39.4597148 130.438404,38.6461777 L130.438404,28.1516012 L127.631715,28.1516012 L127.631715,38.6461777 C127.631715,39.2156537 127.265629,39.5410636 126.533445,39.6224174 C125.801262,39.5410636 125.435176,39.2156537 125.435176,38.6461777 L125.435176,28.1516012 L123.482696,28.1516012 C122.994574,28.1516012 122.70984,28.4770112 122.628487,29.1278409 L122.628487,39.0122676 C122.628487,39.6630973 122.303077,40.0291835 121.652247,40.1105372 C120.920063,40.1105372 120.513301,39.8258035 120.431947,39.2563275 L120.431947,28.2736312 C120.431947,26.8092644 121.286148,26.0770919 122.994576,26.0770919 L126.533445,26.0770919 L127.509685,23.3924329 L121.408187,23.3924329 C120.676004,23.3924329 120.269241,23.0263466 120.187887,22.2941632 C120.187887,21.6433335 120.553974,21.2772473 121.286157,21.1958936 L121.286157,21.1958936 Z M163.630553,12.5317665 C165.257627,12.3690591 165.989799,12.9792028 165.827092,14.3622159 L165.827092,18.3892045 C165.908446,19.9349251 165.257626,20.6670975 163.874613,20.5857438 L147.278538,20.5857438 L147.278538,22.5382231 C147.278538,23.2704066 147.685301,23.677169 148.498838,23.7585227 L165.094912,23.7585227 C166.559279,23.9212302 167.332128,22.9856765 167.413481,20.9518337 C167.576189,20.0569428 168.064304,19.6501804 168.877841,19.7315341 C169.691378,19.8942415 170.016788,20.4230327 169.854081,21.3179236 C169.365958,24.8161332 168.104995,26.4025068 166.071152,26.0770919 L164.118673,26.0770919 L164.118673,29.1278409 L169.487991,29.1278409 C170.301528,29.2091946 170.70829,29.6159571 170.70829,30.3481405 C170.626937,31.1616776 170.179498,31.5684401 169.365961,31.5684401 L164.118673,31.5684401 L164.118673,37.4258781 C164.606795,40.4359655 162.003515,41.2494904 156.308755,39.8664773 C155.495218,39.6224161 155.169808,39.1343012 155.332515,38.4021178 C155.65793,37.6699344 156.227398,37.3852006 157.040935,37.5479081 C160.295083,38.3614452 161.759428,38.1987402 161.434013,37.0597882 L161.434013,31.5684401 L142.15328,31.5684401 C141.421097,31.4870864 141.05501,31.0396477 141.05501,30.2261105 C141.217718,29.4939271 141.665156,29.1278409 142.39734,29.1278409 L161.434013,29.1278409 L161.434013,26.1991219 L147.034478,26.1991219 C145.488758,26.1991219 144.715909,25.3449207 144.715909,23.6364928 L144.715909,14.4842459 C144.553202,13.1012328 145.529432,12.4504128 147.644628,12.5317665 L163.630553,12.5317665 Z M148.132748,14.8503357 C147.481918,14.8503357 147.156508,15.2570982 147.156508,16.0706353 L147.156508,18.1451446 L162.532283,18.1451446 C163.183113,18.2264983 163.467846,17.8604121 163.386493,17.046875 L163.386493,15.7045455 C163.386493,15.1350695 163.101759,14.8503357 162.532283,14.8503357 L148.132748,14.8503357 Z M150.329287,32.4226498 C151.549593,33.7243092 152.566499,34.9852728 153.380036,36.2055785 C153.705451,36.8564082 153.624099,37.3445232 153.135976,37.669938 C152.485147,38.0767066 151.956355,37.9953541 151.549587,37.4258781 C150.73605,36.2869261 149.75982,35.1479912 148.620868,34.0090393 C148.051392,33.4395633 148.051392,32.8700958 148.620868,32.3006198 C149.190344,31.8124976 149.759811,31.8531738 150.329287,32.4226498 L150.329287,32.4226498 Z M189.866994,19.4874742 L195.480372,19.4874742 C197.107446,19.4061205 197.920971,20.1789691 197.920971,21.8060434 L197.920971,36.8157283 C197.758264,37.5479117 198.12435,37.8733217 199.019241,37.791968 C199.588717,37.9546754 199.832774,36.2462731 199.75142,32.6667097 C200.646311,31.3650503 201.459836,31.3650503 202.19202,32.6667097 C202.19202,36.1649194 201.988638,38.1987317 201.58187,38.7682076 C201.337809,39.6630985 200.442931,40.0698609 198.897211,39.9885072 C196.619307,40.0698609 195.561724,39.2156598 195.724432,37.4258781 L195.724432,22.6602531 C195.805786,21.9280697 195.439699,21.6026597 194.626162,21.6840134 L191.087293,21.6840134 C190.35511,21.6840134 189.989024,22.0500996 189.989024,22.7822831 L189.989024,31.93453 C189.989024,35.2700322 189.094146,37.9546644 187.304365,39.9885072 C186.816242,40.4766295 186.246775,40.5173058 185.595945,40.1105372 C185.026469,39.7037686 184.945117,39.1749774 185.351885,38.5241477 C186.97896,36.6530123 187.792485,34.3344663 187.792485,31.5684401 L187.792485,21.6840134 C187.711131,20.1382929 188.402627,19.4061205 189.866994,19.4874742 L189.866994,19.4874742 Z M178.396178,12.1656767 C179.453776,11.1080784 180.226625,11.2301071 180.714747,12.5317665 C180.633393,12.9385351 180.470688,13.42665 180.226627,13.996126 C180.145273,14.1588335 180.104597,14.2808622 180.104597,14.3622159 L182.911286,14.3622159 C184.294299,14.1995085 184.945119,14.9723572 184.863765,16.6807851 L184.863765,38.2800878 C184.538351,40.3139306 182.585891,40.8833981 179.006327,39.9885072 C178.436851,39.7444461 178.23347,39.2970074 178.396178,38.6461777 C178.640239,38.0767017 179.087678,37.8733205 179.738507,38.0360279 C181.690996,38.6055039 182.667226,38.4021226 182.667226,37.4258781 L182.667226,27.5414514 L175.955579,27.5414514 L175.955579,31.3243802 C175.874225,34.8225898 175.182729,37.669927 173.881069,39.8664773 C173.474301,40.517307 172.945509,40.7206882 172.29468,40.4766271 C171.64385,40.0698585 171.481145,39.5410673 171.80656,38.8902376 C173.108219,36.6123337 173.759039,34.1310826 173.759039,31.4464101 L173.759039,27.5414514 L172.53874,27.5414514 C171.969264,27.5414514 171.68453,27.1753652 171.68453,26.4431818 C171.765884,25.7923521 172.091294,25.4669421 172.66077,25.4669421 L173.759039,25.4669421 L173.759039,16.5587552 C173.596332,14.9316809 174.287828,14.1995085 175.833549,14.3622159 L177.541968,14.3622159 C177.623322,14.1995085 177.74535,13.8740985 177.908058,13.3859762 C178.152119,12.8165003 178.314824,12.4097378 178.396178,12.1656767 L178.396178,12.1656767 Z M181.813017,16.4367252 L176.931818,16.4367252 C176.280988,16.4367252 175.955579,16.7214589 175.955579,17.2909349 L175.955579,25.4669421 L182.667226,25.4669421 L182.667226,17.2909349 C182.74858,16.5587515 182.463846,16.2740178 181.813017,16.4367252 L181.813017,16.4367252 Z M177.541968,18.8773244 C177.379261,18.2264947 177.623318,17.779056 178.274148,17.5349948 C178.843624,17.4536411 179.250386,17.7383748 179.494447,18.3892045 C180.226631,20.3416936 180.674069,21.887391 180.836777,23.026343 C180.918131,23.7585264 180.674073,24.2466413 180.104597,24.4907025 C179.453767,24.4907025 179.047005,24.1246163 178.884298,23.3924329 C178.477529,21.6026512 178.03009,20.0976301 177.541968,18.8773244 L177.541968,18.8773244 Z M199.507361,14.6062758 C200.239544,14.6062758 200.686983,14.972362 200.84969,15.7045455 C200.768336,16.4367289 200.361574,16.8028151 199.62939,16.8028151 L187.182335,16.8028151 C186.450151,16.8028151 186.002713,16.4367289 185.840005,15.7045455 C185.921359,14.972362 186.328121,14.6062758 187.060305,14.6062758 L191.697443,14.6062758 C191.453382,13.9554461 191.209325,13.4266549 190.965263,13.0198864 C190.639849,12.287703 190.802554,11.7182355 191.453383,11.3114669 C192.185567,11.0674058 192.755034,11.3114633 193.161803,12.0436467 C193.568571,12.7758301 193.934657,13.6300313 194.260072,14.6062758 L199.507361,14.6062758 Z M177.786028,29.9820506 C177.62332,29.2498672 177.826702,28.7617523 178.396178,28.5176911 C179.047007,28.4363374 179.494446,28.7617474 179.738507,29.4939308 C180.307983,31.7718347 180.714746,33.5209133 180.958807,34.741219 C181.121514,35.5547561 180.918133,36.0428711 180.348657,36.2055785 C179.697827,36.3682859 179.250389,36.0835522 179.006327,35.3513688 C178.924974,35.1073077 178.843621,34.7412214 178.762268,34.2530992 C178.436853,32.4633175 178.111443,31.0396489 177.786028,29.9820506 L177.786028,29.9820506 Z M207.073218,33.7649793 C208.944353,31.4870754 210.490051,28.9244719 211.710356,26.0770919 C210.896819,24.2873103 209.717208,22.3348505 208.171488,20.2196539 C207.764719,19.5688242 207.805395,18.9993568 208.293518,18.5112345 C208.944347,18.1044659 209.513815,18.1858184 210.001937,18.7552944 C210.490059,19.3247704 211.262908,20.4637053 212.320506,22.1721333 C212.645921,22.7416093 212.849302,23.1076955 212.930656,23.2704029 C213.662839,21.2365601 214.232307,19.3654528 214.639075,17.6570248 C214.883137,16.9248414 215.371252,16.6401077 216.103435,16.8028151 C216.835618,17.0468762 217.120352,17.5349912 216.957645,18.2671746 C216.388169,20.707786 215.533967,23.3110657 214.395015,26.0770919 C215.452614,28.029581 216.347491,30.2667746 217.079675,32.7887397 C217.242382,33.5209231 216.998325,34.0497143 216.347495,34.3751291 C215.696665,34.6191903 215.249226,34.3344565 215.005165,33.5209194 C214.191628,31.3243692 214.110276,31.120988 214.761105,32.9107696 C214.110276,31.120988 213.540808,29.6973193 213.052686,28.6397211 C211.506965,31.5684547 210.164649,33.7242958 209.025697,35.1073089 C208.537575,35.7581386 207.968108,35.9208436 207.317278,35.5954287 C206.747802,35.0259527 206.666449,34.415809 207.073218,33.7649793 L207.073218,33.7649793 Z M229.4047,13.0198864 C231.113128,12.9385327 231.926653,13.7520576 231.8453,15.4604855 L231.8453,37.1818182 C232.008007,40.354613 229.730137,41.3308429 225.011622,40.1105372 C224.279438,39.8664761 223.913352,39.3783611 223.913352,38.6461777 C224.07606,37.9139943 224.564175,37.6292606 225.377712,37.791968 C228.469153,38.361444 229.770793,37.873329 229.28267,36.3276085 L229.28267,16.6807851 C229.364024,15.867248 228.997938,15.5011618 228.184401,15.5825155 L207.805398,15.5825155 C207.073214,15.5825155 206.707128,15.9486017 206.707128,16.6807851 L206.707128,38.8902376 C206.707128,39.7851284 206.341042,40.2732434 205.608858,40.3545971 C204.795321,40.2732434 204.388559,39.7851284 204.388559,38.8902376 L204.388559,15.4604855 C204.225851,13.6707039 205.039376,12.8571789 206.829158,13.0198864 L229.4047,13.0198864 Z M216.713585,35.1073089 C218.910135,32.2599289 220.659214,29.453268 221.960873,26.6872417 C220.415152,24.0839229 219.113513,22.0094344 218.055914,20.4637138 C217.649146,19.8128841 217.649146,19.2434167 218.055914,18.7552944 C218.706744,18.2671721 219.276211,18.3078484 219.764334,18.8773244 C220.496517,19.8535689 221.635452,21.521295 223.181173,23.8805527 C223.669295,22.4975396 224.198086,20.7891372 224.767562,18.7552944 C224.686208,18.9180018 224.726885,18.7552969 224.889592,18.2671746 C225.133653,17.4536375 225.621768,17.1282275 226.353951,17.2909349 C227.086135,17.5349961 227.370869,18.0637873 227.208161,18.8773244 C226.475978,21.4806432 225.621777,24.0025704 224.645532,26.4431818 C226.028545,29.1278543 227.126804,31.4870766 227.940341,33.5209194 C228.265756,34.497164 228.103051,35.1479839 227.452221,35.4733988 C226.720038,35.7174599 226.15057,35.3920499 225.743802,34.4971591 C225.011618,32.6260237 224.198093,30.8362689 223.303202,29.1278409 C222.001543,31.7311597 220.455846,34.2124107 218.666064,36.5716684 C218.096588,37.0597907 217.527121,37.1818194 216.957645,36.9377583 C216.388169,36.3682823 216.306816,35.7581386 216.713585,35.1073089 L216.713585,35.1073089 Z" id="前端导航网" fill="#000000" sketch:type="MSShapeGroup"></path>
            </g>
        </g>
    </g>
</svg>